# xmcd
#
# Track frame offsets:
#       182
#       23337
#       42057
#       66332
#       93495
#       111160
#       137987
#       157917
#       190305
#       209067
#       234917
#       256705
#       285575
#
# Disc length: 3922 seconds
#
# Revision: 1
# Processed by: cddbd v1.5.1PL0 Copyright (c) Steve Scherf et al.
# Submitted via: CD-DA_X-Tractor v0.24
#
DISCID=ae0f500d
DTITLE=Wild West Picture Show - Ramona's Flophouse
DYEAR=1900
DGENRE=
TTITLE0=Wild West Picture Show
TTITLE1=10 Miles Ahead
TTITLE2=Wicked World
TTITLE3=Run You Down
TTITLE4=Hometown Livin'
TTITLE5=Salvation
TTITLE6=Please Talk
TTITLE7=Back Here In The World
TTITLE8=Delta Detour
TTITLE9=Hard Man
TTITLE10=Five More Minutes
TTITLE11=Get Wet
TTITLE12=Bonus Track
EXTD=
EXTT0=
EXTT1=
EXTT2=
EXTT3=
EXTT4=
EXTT5=
EXTT6=
EXTT7=
EXTT8=
EXTT9=
EXTT10=
EXTT11=
EXTT12=
PLAYORDER=
